HIERARCHY
ROOT Hips
{
	OFFSET -14.64140 90.27770 -84.91600
	CHANNELS 6 Xposition Yposition Zposition Zrotation Xrotation Yrotation
	JOINT Spine
	{
		OFFSET 0.00000 13.20850 -1.60436
		CHANNELS 3 Zrotation Xrotation Yrotation
		JOINT Spine1
		{
			OFFSET 0.00000 8.61716 0.00000
			CHANNELS 3 Zrotation Xrotation Yrotation
			JOINT Spine2
			{
				OFFSET 0.00000 8.61717 0.00000
				CHANNELS 3 Zrotation Xrotation Yrotation
				JOINT Spine3
				{
					OFFSET 0.00000 8.61717 0.00000
					CHANNELS 3 Zrotation Xrotation Yrotation
					JOINT Neck
					{
						OFFSET 0.00000 11.07920 1.10792
						CHANNELS 3 Zrotation Xrotation Yrotation
						JOINT Neck1
						{
							OFFSET 0.00000 7.08032 0.00000
							CHANNELS 3 Zrotation Xrotation Yrotation
							JOINT Head
							{
								OFFSET 0.00000 7.08031 0.00000
								CHANNELS 3 Zrotation Xrotation Yrotation
								End site
								{
									OFFSET 0.00000 0.00000 0.00000
								}
							}
						}
					}
					JOINT RightShoulder
					{
						OFFSET -0.01000 7.91373 5.19711
						CHANNELS 3 Zrotation Xrotation Yrotation
						JOINT RightArm
						{
							OFFSET -18.41580 0.00000 0.00000
							CHANNELS 3 Zrotation Xrotation Yrotation
							JOINT RightForeArm
							{
								OFFSET -29.11090 0.00000 0.00000
								CHANNELS 3 Zrotation Xrotation Yrotation
								JOINT RightHand
								{
									OFFSET -24.65040 0.00000 0.00000
									CHANNELS 3 Zrotation Xrotation Yrotation
									JOINT RightHandThumb1
									{
										OFFSET -5.35114 -0.85590 3.97906
										CHANNELS 3 Zrotation Xrotation Yrotation
										JOINT RightHandThumb2
										{
											OFFSET -4.52789 0.00000 0.00000
											CHANNELS 3 Zrotation Xrotation Yrotation
											JOINT RightHandThumb3
											{
												OFFSET -2.46976 0.00000 0.00000
												CHANNELS 3 Zrotation Xrotation Yrotation
												End site
												{
													OFFSET 0.00000 0.00000 0.00000
												}
											}
										}
									}
									JOINT RightHandIndex1
									{
										OFFSET -14.26970 0.00000 2.88139
										CHANNELS 3 Zrotation Xrotation Yrotation
										JOINT RightHandIndex2
										{
											OFFSET -5.48836 0.00000 0.00000
											CHANNELS 3 Zrotation Xrotation Yrotation
											JOINT RightHandIndex3
											{
												OFFSET -3.01859 0.00000 0.00000
												CHANNELS 3 Zrotation Xrotation Yrotation
												End site
												{
													OFFSET 0.00000 0.00000 0.00000
												}
											}
										}
									}
									JOINT RightHandMiddle1
									{
										OFFSET -14.26970 0.00000 -0.09147
										CHANNELS 3 Zrotation Xrotation Yrotation
										JOINT RightHandMiddle2
										{
											OFFSET -6.17441 0.00000 0.00000
											CHANNELS 3 Zrotation Xrotation Yrotation
											JOINT RightHandMiddle3
											{
												OFFSET -3.56743 0.00000 0.00000
												CHANNELS 3 Zrotation Xrotation Yrotation
												End site
												{
													OFFSET 0.00000 0.00000 0.00000
												}
											}
										}
									}
									JOINT RightHandRing1
									{
										OFFSET -12.69180 0.00000 -3.06433
										CHANNELS 3 Zrotation Xrotation Yrotation
										JOINT RightHandRing2
										{
											OFFSET -5.62556 0.00000 0.00000
											CHANNELS 3 Zrotation Xrotation Yrotation
											JOINT RightHandRing3
											{
												OFFSET -3.56744 0.00000 0.00000
												CHANNELS 3 Zrotation Xrotation Yrotation
												End site
												{
													OFFSET 0.00000 0.00000 0.00000
												}
											}
										}
									}
									JOINT RightHandPinky1
									{
										OFFSET -11.11390 0.00000 -6.03719
										CHANNELS 3 Zrotation Xrotation Yrotation
										JOINT RightHandPinky2
										{
											OFFSET -4.52789 0.00000 0.00000
											CHANNELS 3 Zrotation Xrotation Yrotation
											JOINT RightHandPinky3
											{
												OFFSET -2.46976 0.00000 0.00000
												CHANNELS 3 Zrotation Xrotation Yrotation
												End site
												{
													OFFSET 0.00000 0.00000 0.00000
												}
											}
										}
									}
								}
							}
						}
					}
					JOINT LeftShoulder
					{
						OFFSET 0.01000 7.91373 5.19711
						CHANNELS 3 Zrotation Xrotation Yrotation
						JOINT LeftArm
						{
							OFFSET 18.41580 0.00000 0.00000
							CHANNELS 3 Zrotation Xrotation Yrotation
							JOINT LeftForeArm
							{
								OFFSET 29.11090 0.00000 0.00000
								CHANNELS 3 Zrotation Xrotation Yrotation
								JOINT LeftHand
								{
									OFFSET 24.65040 0.00000 0.00000
									CHANNELS 3 Zrotation Xrotation Yrotation
									JOINT LeftHandThumb1
									{
										OFFSET 5.35114 -0.85590 3.97906
										CHANNELS 3 Zrotation Xrotation Yrotation
										JOINT LeftHandThumb2
										{
											OFFSET 4.52789 0.00000 0.00000
											CHANNELS 3 Zrotation Xrotation Yrotation
											JOINT LeftHandThumb3
											{
												OFFSET 2.46977 0.00000 0.00000
												CHANNELS 3 Zrotation Xrotation Yrotation
												End site
												{
													OFFSET 0.00000 0.00000 0.00000
												}
											}
										}
									}
									JOINT LeftHandIndex1
									{
										OFFSET 14.26970 0.00000 2.88139
										CHANNELS 3 Zrotation Xrotation Yrotation
										JOINT LeftHandIndex2
										{
											OFFSET 5.48836 0.00000 0.00000
											CHANNELS 3 Zrotation Xrotation Yrotation
											JOINT LeftHandIndex3
											{
												OFFSET 3.01859 0.00000 0.00000
												CHANNELS 3 Zrotation Xrotation Yrotation
												End site
												{
													OFFSET 0.00000 0.00000 0.00000
												}
											}
										}
									}
									JOINT LeftHandMiddle1
									{
										OFFSET 14.26970 0.00000 -0.09147
										CHANNELS 3 Zrotation Xrotation Yrotation
										JOINT LeftHandMiddle2
										{
											OFFSET 6.17440 0.00000 0.00000
											CHANNELS 3 Zrotation Xrotation Yrotation
											JOINT LeftHandMiddle3
											{
												OFFSET 3.56744 0.00000 0.00000
												CHANNELS 3 Zrotation Xrotation Yrotation
												End site
												{
													OFFSET 0.00000 0.00000 0.00000
												}
											}
										}
									}
									JOINT LeftHandRing1
									{
										OFFSET 12.69180 0.00000 -3.06433
										CHANNELS 3 Zrotation Xrotation Yrotation
										JOINT LeftHandRing2
										{
											OFFSET 5.62556 0.00000 0.00000
											CHANNELS 3 Zrotation Xrotation Yrotation
											JOINT LeftHandRing3
											{
												OFFSET 3.56744 0.00000 0.00000
												CHANNELS 3 Zrotation Xrotation Yrotation
												End site
												{
													OFFSET 0.00000 0.00000 0.00000
												}
											}
										}
									}
									JOINT LeftHandPinky1
									{
										OFFSET 11.11390 0.00000 -6.03719
										CHANNELS 3 Zrotation Xrotation Yrotation
										JOINT LeftHandPinky2
										{
											OFFSET 4.52789 0.00000 0.00000
											CHANNELS 3 Zrotation Xrotation Yrotation
											JOINT LeftHandPinky3
											{
												OFFSET 2.46976 0.00000 0.00000
												CHANNELS 3 Zrotation Xrotation Yrotation
												End site
												{
													OFFSET 0.00000 0.00000 0.00000
												}
											}
										}
									}
								}
							}
						}
					}
					JOINT pCube4
					{
						OFFSET 0.00000 10.91090 1.10792
						CHANNELS 3 Zrotation Xrotation Yrotation
						End site
						{
							OFFSET 0.00000 0.00000 0.00000
						}
					}
				}
			}
		}
	}
	JOINT RightUpLeg
	{
		OFFSET -9.98441 0.00000 0.00000
		CHANNELS 3 Zrotation Xrotation Yrotation
		JOINT RightLeg
		{
			OFFSET 0.00000 -42.11790 0.00000
			CHANNELS 3 Zrotation Xrotation Yrotation
			JOINT RightFoot
			{
				OFFSET 0.00000 -45.00020 -0.00001
				CHANNELS 3 Zrotation Xrotation Yrotation
				JOINT RightForeFoot
				{
					OFFSET 0.00000 -3.74820 0.00000
					CHANNELS 3 Zrotation Xrotation Yrotation
					JOINT RightToeBase
					{
						OFFSET 0.00000 0.06325 14.43120
						CHANNELS 3 Zrotation Xrotation Yrotation
						End site
						{
							OFFSET 0.00000 0.00000 0.00000
						}
					}
				}
			}
		}
	}
	JOINT LeftUpLeg
	{
		OFFSET 9.98441 0.00000 0.00000
		CHANNELS 3 Zrotation Xrotation Yrotation
		JOINT LeftLeg
		{
			OFFSET 0.00000 -42.11800 0.00000
			CHANNELS 3 Zrotation Xrotation Yrotation
			JOINT LeftFoot
			{
				OFFSET 0.00000 -45.00070 0.00000
				CHANNELS 3 Zrotation Xrotation Yrotation
				JOINT LeftForeFoot
				{
					OFFSET 0.00000 -3.74824 0.00000
					CHANNELS 3 Zrotation Xrotation Yrotation
					JOINT LeftToeBase
					{
						OFFSET 0.00000 0.06325 14.43110
						CHANNELS 3 Zrotation Xrotation Yrotation
						End site
						{
							OFFSET 0.00000 0.00000 0.00000
						}
					}
				}
			}
		}
	}
}
MOTION
Frames: 4
Frame Time: 0.050000
-0.03610127082750327 -0.006610729729130857 0.039630545764371604 -0.03639177881200644 -0.02020966167096876 0.022916018127596513 -1.5177019691923985 1.8247596972013178 -0.8966550543949773 -0.9181061547678895 3.976666596923039 0.3609040276842418 -1.1012254565272848 -1.2297495106010017 -0.7040006832656842 0.6999000405728658 0.4454847744427735 -0.7995752791344544 0.007344183757374063 11.648029152156061 -1.0957433829902936 0.15277003191643904 -1.0086814000076698 -4.347293663612192 0.6537520071357014 -16.594206024838982 -0.36616652444120135 -2.021085516662806 0.8593660065163948 -15.209686199412205 74.73584801331648 26.092712167762862 1.1540941575811214 11.649512621281565 2.2728365487217737 47.110215316472484 21.451888479304415 0.04575987410712417 -4.903318931654556 4.512612005252355 -0.08228168512597486 -1.6049772113888132 -0.0210651666790792 -0.04460462753541506 -56.19840175816948 -0.02378831184114257 0.04684491598435017 -56.19807595760211 -38.76982212359377 0.042818262947808654 0.03431399144865912 -0.01358735837468485 0.0026706087329528834 0.023533826648086495 0.013506581607809398 -0.043111641965830304 -0.041565821812537235 -36.71265001554863 0.005715606451073212 -0.015545418829995966 0.03232125833852874 -0.0435843396870558 0.04263962102830232 -0.0014613430590716362 -0.002819476529498026 0.019519544873089708 -19.790639719487306 0.008914998285503562 0.045538104679740364 -0.007275651370542916 0.04416868648061217 -0.011317840853770298 0.006003239292177427 0.014192871636363593 -0.016775868813287124 24.101300706918174 -0.023940539016661433 -0.006546227018733181 28.8571007691875 -0.029401107956742042 -0.0009153456658649242 28.819227274136797 0.010068430655892165 -0.04569789406006009 3.56200930648774 1.0512719564882538 13.749852922420516 -69.89779130282173 34.75576904060299 -6.645384112651884 -4.071492179191311 -3.1959084232292967 -95.48472520932185 -14.559497092691167 -4.778363015023076 2.9159322682599447 -0.5107800139776248 0.10454533079875114 -8.140074758362449 -0.0318956624676021 -0.004278133962874995 44.591330313834256 0.00827104383754891 0.003067224444649419 44.59016955847984 12.461434376023877 0.02597983212126354 0.02659497137328531 0.02915195394369634 -0.039031245527507114 -0.023323731874642234 0.04826936915319295 0.02252880043663366 -0.019754648851421718 11.089834797341338 -0.030612218708797843 -0.018609683472074093 -0.026649720315115383 0.0031313283386220554 -0.02604555582827234 0.0108076824748919 0.03654294653172144 0.02221065571177433 4.7879761770759695 0.039876391046433576 0.006432433520457596 -0.015978036661994703 0.013064636797575144 -0.016318493823955043 -0.0190662638149 -0.025433040123407986 -0.025618703294876793 -5.601556307830924 0.040789223170650854 0.04478753134244273 -6.705872643090111 -0.02314160790180902 -0.026810319701984293 -6.726632279784347 -0.03128932648129283 -0.017344284271912154 0.005567965718413795 0.002011908654536067 -0.027605247391031387 8.060898960278013 3.478000153926786 -19.22040879972652 0.03883035174565482 10.365976283547914 0.00698005663004464 -5.600261309875711 -15.642985717415417 3.201761646756115 -0.013747008428741592 -0.001250637625574596 -0.007492291581117122 -0.031643960815711795 4.724728408723675 0.02333954137843972 12.411009842159473 -8.234304130433149 6.838293450166221 -0.009635249023651636 46.39982766614791 0.03484190596016407 -4.314251701597117 -14.767576755871007 -3.7873095467783093 0.006016275819248739 0.02906995448571359 -0.0014530696814507478 0.012878441683903239 -10.735077779642687 -0.00433569237440565 
-0.013555555534011499 0.045104874377889834 -0.02823583456434339 -0.01950960516241752 0.026143999567360632 0.004208046669293463 -1.3804849031491346 1.6622913637319308 -0.9830579060268007 -0.8824345247265795 3.8847497715778925 0.39781852047686866 -1.0608077666724784 -1.383459938480169 -0.6864315188501631 0.7486898997857344 0.4116794090070895 -0.783351247347662 0.1420418805075976 11.665420506508038 -1.2842199767695315 0.17549826727729384 -0.9257729077570709 -4.823714152234453 0.7395911715686135 -16.47464847959513 -0.4220219575779842 -2.230517112784154 0.9658580068854853 -15.267300282482978 75.08662872571836 25.94079779293254 0.7231276387375114 12.337218231256953 2.7267341817235415 46.88278928138994 21.809281959047848 0.04493556665772982 -4.929468453400332 4.550128779998891 -0.16996211944891368 -1.585994956157542 0.031132470987506877 0.0020018111338123783 -56.223034238116114 -0.03028705753133088 0.024258087378200656 -56.23471924153757 -38.78031843659143 0.04781850030536533 -0.01925109563653179 -0.03564474897809721 -0.03555431512548435 0.032013562586104834 0.02779705104071461 -0.0170447678914052 0.011005525713246605 -36.65429671028898 -0.016609314130036325 -0.004422252313309642 -0.01817278221834502 -0.03176093535476147 -0.0010837754832028633 -0.017049759356031452 0.042732659850256885 0.023986685322349294 -19.773736517089848 -0.0288440159559483 -0.004060060971413019 0.029458984835435624 0.02829951824684234 0.017161025914046377 -0.015522145587238221 -0.038174391289627005 -0.037542339951116485 24.069485537894792 -0.04014437847234456 -0.037431248235915746 28.91089357809553 -0.03214577622425828 0.03405248554103759 28.876599904799452 0.005390676262661957 -0.03697624409301852 3.6100521819753824 1.066521542823172 13.75702787238773 -70.41826757954016 35.368763663811116 -5.617171772205985 -3.7232300297742267 -4.068513063098803 -96.25487056982178 -14.423080888679563 -4.974649915076122 2.6714844038130834 -0.5121301744918836 0.08037255892442724 -8.16209999388253 -0.04439414683290499 0.014376789901074096 44.56632942461964 0.02827280661245349 -0.013211244176783984 44.56565061772536 12.470388357847527 0.014726446735143438 -0.004595820898660718 0.033622055704432406 0.005070419536099553 0.010504591869626385 -0.028266146387076075 -0.03322746467282093 0.010026077261385151 11.149336308097125 0.00030676835166937533 0.005649166009697382 -0.008762975345599232 0.03410694795528136 0.012645126728140561 0.02089482576708821 0.01605480813619056 0.03043692853126181 4.782840909296776 -0.0038487684146939313 -0.043209531524761174 -0.01798972317353948 -0.00047110421528320334 0.009829335496903244 0.011448353403420892 0.005896281451542599 0.02952403611302811 -5.599024118848646 -0.02419175565053243 0.03351355377366605 -6.67725311495802 -0.047082997093513046 -0.029306196106686073 -6.715012006751256 0.011568638608127393 -0.030483092701356056 -0.039056211365975486 -0.007820840572919043 0.0386677391059376 8.065130489723568 3.491017180086322 -19.24001982501284 -0.019034666483668188 10.425587315335424 0.004461727393249628 -5.574831406440707 -15.619351704805394 3.1478730138967532 0.025608571893619838 0.023069804702567115 -0.004157021568369775 -0.04603513741810011 4.734531327911346 -0.01330347634248125 12.445416305165368 -8.227135451250344 6.857046408234744 -0.012904090963999937 46.40871910910341 -0.02365391848036978 -4.290777503977065 -14.784677191795819 -3.880637939471983 0.0408570421434751 -0.002552994913022059 -0.03924367843384783 -0.0314082722706026 -10.723469103912167 -0.013799676817024254 
-0.02034538238703931 -0.0351759345570699 0.007576605104876864 0.03128455930156217 -0.019714977586160927 -0.03354994729275156 -1.3139868408171227 1.469971810671022 -1.0031953134270626 -0.882344148921329 3.887611012459309 0.35937754239722 -1.0288444730104775 -1.4006600437939765 -0.7433234301720716 0.6838256178835241 0.4145842981938426 -0.7760257541826602 0.24092870455207843 11.743081385967118 -1.4325350613213947 0.18478544011778725 -0.8418242991883673 -4.8739174464169475 0.807071002573652 -16.300508910873678 -0.41953421134008656 -2.3947477309381773 1.0407311409793187 -15.36459509199479 75.27656255310269 25.992023469907554 0.23427499243709674 12.903016860543346 3.286885918798182 46.46647335544864 22.07492621559154 0.02301143555334908 -4.908799969215438 4.543229878899436 -0.17487589051557884 -1.6035427969836102 -0.029982408500030734 0.00064467230079569 -56.19544473108327 -0.043675640272606474 0.022380695864676944 -56.20782332723338 -38.77880753315889 -0.014693471421596428 0.0030501414898218633 0.016980943515880618 0.013598610752225336 0.03926747765574026 -0.015878622899437405 0.027248305602210986 0.011655318070140409 -36.70585107590202 0.01706819976762756 0.026603795784902882 0.006483560020512234 0.01555934957413277 -0.03554536121337271 -0.005872533551305729 0.0454882635719101 -0.03644405295184988 -19.771548981064434 -0.04148641999280245 0.04528628315027712 -0.01853885232843534 -0.015679534760191922 -0.029190294494799426 0.04532468166282439 -0.012998823267578887 -0.01610378832525187 24.054915351159448 -0.007271210538634692 -0.033936450805446036 28.821753964298917 0.019102613811297294 0.027844181397369463 28.837775132475898 -0.03132190593834958 -0.0033206779392386896 3.6971113397095805 1.0732801085867592 13.684671415483685 -70.73016268379043 35.86078737482563 -4.844057637245832 -3.6818808159182876 -4.674814192327779 -96.81679830781994 -14.052851105634208 -4.874345778198681 2.1459040481969027 -0.4892208631780284 0.05265769997825527 -8.093956774979329 -0.03125881551631536 -0.03341484531227339 44.562528036706865 -0.013795445624191908 -0.014571913819324305 44.536319367589996 12.465727352559082 -0.0017160257030706045 0.03441715674274074 -0.020976661444489272 -0.006637874935619718 -0.02170868333891927 -0.015747261804956794 0.035480005914022394 -0.040234246034362806 11.11771848222043 -0.020952433218147493 0.011489280972022899 -0.01074749002949516 -0.007329703613147675 0.0009554664390221023 0.005752519144921503 -0.0033333290207045113 0.011749908704543833 4.81551254521025 0.005389986613362948 -0.0027941684184294067 0.016535691583603657 -0.004565365352312604 0.04669168049934347 0.005713381409617633 -0.03305380862790935 0.03267872118927138 -5.630445659741061 -0.007608802416509384 -0.04444416330274277 -6.693675843814629 0.03156813777742014 0.02485595423313329 -6.69394459170978 0.0037313785075451912 -0.0011676627855504468 0.031014403736350827 -0.02726412070363739 -0.03302156784475484 8.021860903170074 3.4912269481520695 -19.245377520857723 -0.008965793240604734 10.435048207644352 0.03421577541884667 -5.667379978365077 -15.66146674529436 3.142981816388865 -0.017214631133584776 -0.0006165626352037476 -0.008309732359921697 -0.04943732541449807 4.7421400856226095 0.03007138500024714 12.425944819743847 -8.240406881287699 6.907484239740981 -0.033343860635022454 46.39010933884064 -0.009251275581314078 -4.279827959416505 -14.714363729572375 -3.82711006780076 0.0061418218136505024 0.028065550698104787 -0.04110009004513231 -0.048333636693584606 -10.718120007561847 -0.013652524377553134 
-0.042497780216168304 0.017396058267128818 -0.01743735391816529 0.002335727949640965 -0.009060580025466891 -0.0021323584740937304 -1.3685536913112049 1.2297551468990997 -0.9694725687489142 -0.8770067115048774 3.9046164479618666 0.3550060791976287 -1.027432988025694 -1.45550723091106 -0.7054122977517926 0.6166561417263874 0.46605082947054377 -0.759074843230628 0.21099391827897093 11.97176630268446 -1.2822196632642553 0.28023896859163705 -0.6663312352096501 -4.640425930973348 0.829324458075283 -16.050047749276594 -0.39058169744717547 -2.555674762443092 1.0903487924350947 -15.326150920445988 75.55689798587667 26.160596046064278 -0.20831941199367363 13.583428834968828 3.724025889407315 46.416583182785345 22.27746601578815 0.009093322911703297 -4.945566906043535 4.577616359861927 -0.08550440821424604 -1.6172438240951559 -0.00416300950825744 -0.04762805587863172 -56.26222374168863 0.014851685896713918 -0.03511450387387621 -56.27149208955539 -38.732580380147986 -0.009620994543774044 0.036192952792863206 -0.019337722932506667 0.03225545905990049 0.04398240697615086 0.041760926186237314 -0.025180521665685202 -0.0026956556271951998 -36.665371154907106 -0.009874153363552077 -0.0031029321533217608 -0.031877840561146946 0.02811186696158389 0.0038788840005288773 -0.011094046482357855 0.02979142716370178 0.005624280857800474 -19.761074603401486 0.04778490233231833 0.023678511234184314 0.006250613602684068 -0.022584392002145272 -0.0010051763267815608 -0.034623897143776554 0.017178522197508657 -0.009374858736219677 24.05277587541206 -0.03353105709902533 0.012463632288187306 28.826848425089956 0.022241176134091194 0.02861138495139245 28.91343001173246 0.01003489897296882 0.011351839909484619 3.841841762611664 1.1023500866105573 13.730038135684875 -70.90978671486621 36.134933149153625 -4.52233248679017 -3.6195495579616432 -5.384195630993274 -97.730362569167 -12.959841776032166 -4.572549754108953 1.2836688115284145 -0.4876392542322741 0.06989609416197254 -8.14355245606846 -0.04592261035012104 0.019374867326847428 44.600630189534826 -0.04009446496444106 0.0379385296988998 44.555042581457656 12.474328066233188 -0.04199383821310508 0.04237702754758216 0.041285316431386325 0.0467211848286013 0.0123473623322268 0.03932505497150372 0.0007285275769702668 -0.015278393537406162 11.064405829403363 -0.037323499579203306 0.030670082398603245 -0.00837168326683136 0.013938054184315127 -0.0035287975482705897 0.012427767812569514 -0.046872053617964975 -0.03461946585161817 4.772389745334478 -0.019855617059096976 -0.04424526730669979 -0.04836516054187801 0.009447018078208295 -0.04777104611388528 -0.043897685665434595 -0.03381299740014018 -0.024548500049490038 -5.596133241100341 0.03115105392836716 -0.020703465863043558 -6.6948015958281495 0.010666563486145367 0.005410377299158734 -6.7229667060026 -0.020977822989009763 0.01093095981678867 -0.022291480314537315 0.006474176421573889 -0.018822990487624952 8.051587587401281 3.4723659153990893 -19.25431169866936 0.043859650742676184 10.436393164925088 -0.005513947097372806 -5.588873943309471 -15.650027748605442 3.194061190393894 0.025282947911843868 0.006204642941498261 0.020109474299626427 0.036364461610617585 4.655380828361286 0.02390883693509611 12.478356957871652 -8.248807207673407 6.926808039479457 0.008661027887130473 46.411434970561814 0.021020536244847482 -4.336507380047523 -14.776645513925585 -3.867688261027223 -0.009856006237399538 0.02019471230542467 -0.010760693657784412 -0.008215102868788652 -10.738221196939925 0.03869630451996935 
